<svg width="38" height="40" viewBox="0 0 38 40" fill="none" xmlns="http://www.w3.org/2000/svg">
<path d="M31.3015 5.56742C31.1374 5.56742 30.9732 5.52909 30.8296 5.45242C26.8908 3.55492 23.4853 2.74992 19.4029 2.74992C15.341 2.74992 11.4842 3.65075 7.97616 5.45242C7.48381 5.70159 6.86836 5.52909 6.58116 5.06909C6.31447 4.60909 6.4991 4.01492 6.99145 3.76575C10.8072 1.82992 14.9922 0.833252 19.4029 0.833252C23.7725 0.833252 27.5883 1.73409 31.7733 3.74659C32.2862 3.99575 32.4708 4.57075 32.2041 5.03075C32.0195 5.37575 31.6707 5.56742 31.3015 5.56742ZM1.94482 15.6299C1.73967 15.6299 1.53452 15.5724 1.34989 15.4574C0.878048 15.1508 0.775474 14.5566 1.10371 14.1158C3.13467 11.4324 5.71954 9.32409 8.79675 7.84825C15.2384 4.74325 23.4853 4.72409 29.9475 7.82909C33.0247 9.30492 35.6096 11.3941 37.6405 14.0583C37.9688 14.4799 37.8662 15.0933 37.3944 15.3999C36.9225 15.7066 36.2866 15.6108 35.9583 15.1699C34.112 12.7549 31.7733 10.8574 29.0038 9.53492C23.1161 6.71742 15.5871 6.71742 9.71992 9.55409C6.92991 10.8958 4.59122 12.8124 2.74489 15.2274C2.58078 15.4958 2.27305 15.6299 1.94482 15.6299ZM14.7666 38.7641C14.4999 38.7641 14.2332 38.6683 14.0485 38.4766C12.2638 36.8091 11.2996 35.7358 9.92507 33.4166C8.50955 31.0591 7.77102 28.1841 7.77102 25.0983C7.77102 19.4058 12.9818 14.7674 19.3824 14.7674C25.783 14.7674 30.9937 19.4058 30.9937 25.0983C30.9937 25.6349 30.5424 26.0566 29.968 26.0566C29.3936 26.0566 28.9423 25.6349 28.9423 25.0983C28.9423 20.4599 24.6547 16.6841 19.3824 16.6841C14.1101 16.6841 9.82249 20.4599 9.82249 25.0983C9.82249 27.8583 10.479 30.4074 11.7304 32.4774C13.0433 34.6816 13.946 35.6208 15.5256 37.1158C15.9154 37.4991 15.9154 38.0933 15.5256 38.4766C15.2999 38.6683 15.0332 38.7641 14.7666 38.7641ZM29.4757 35.2183C27.0344 35.2183 24.8803 34.6433 23.1161 33.5124C20.0594 31.5766 18.2336 28.4333 18.2336 25.0983C18.2336 24.5616 18.6849 24.1399 19.2593 24.1399C19.8337 24.1399 20.285 24.5616 20.285 25.0983C20.285 27.8008 21.7621 30.3499 24.2649 31.9216C25.7214 32.8416 27.4242 33.2824 29.4757 33.2824C29.968 33.2824 30.7886 33.2249 31.6092 33.0908C32.1631 32.9949 32.6965 33.3399 32.799 33.8766C32.9016 34.3941 32.5324 34.8924 31.9579 34.9883C30.7886 35.1991 29.7629 35.2183 29.4757 35.2183ZM25.3522 39.1666C25.2701 39.1666 25.1675 39.1474 25.0855 39.1283C21.8236 38.2849 19.6901 37.1541 17.454 35.1033C14.5819 32.4391 13.0023 28.8933 13.0023 25.0983C13.0023 21.9933 15.8333 19.4633 19.3208 19.4633C22.8083 19.4633 25.6394 21.9933 25.6394 25.0983C25.6394 27.1491 27.5473 28.8166 29.9065 28.8166C32.2657 28.8166 34.1735 27.1491 34.1735 25.0983C34.1735 17.8724 27.5062 12.0074 19.3003 12.0074C13.4741 12.0074 8.14028 15.0358 5.74005 19.7316C4.93997 21.2841 4.52968 23.1049 4.52968 25.0983C4.52968 26.5933 4.67328 28.9508 5.90417 32.0174C6.10932 32.5158 5.84263 33.0716 5.30924 33.2441C4.77586 33.4358 4.18093 33.1674 3.9963 32.6883C2.99107 30.1774 2.49872 27.6858 2.49872 25.0983C2.49872 22.7983 2.97056 20.7091 3.89372 18.8883C6.62219 13.5408 12.674 10.0716 19.3003 10.0716C28.6345 10.0716 36.225 16.7991 36.225 25.0791C36.225 28.1841 33.394 30.7141 29.9065 30.7141C26.4189 30.7141 23.5879 28.1841 23.5879 25.0791C23.5879 23.0283 21.68 21.3608 19.3208 21.3608C16.9616 21.3608 15.0538 23.0283 15.0538 25.0791C15.0538 28.3566 16.4077 31.4233 18.89 33.7233C20.8389 35.5249 22.7058 36.5216 25.5984 37.2691C26.1523 37.4033 26.46 37.9399 26.3164 38.4383C26.2138 38.8791 25.783 39.1666 25.3522 39.1666Z" fill="#0F5E9A"/>
</svg>
