<svg width="18" height="18" viewBox="0 0 18 18" fill="none" xmlns="http://www.w3.org/2000/svg">
<path d="M15.912 0.0109482C15.8938 0.00947953 15.8785 0 15.8595 0H8.021C6.81496 0 5.8335 0.981464 5.8335 2.1875V2.91662C5.8335 3.31917 6.16007 3.64588 6.56262 3.64588C6.96516 3.64588 7.29174 3.31917 7.29174 2.91662V2.1875C7.29174 1.78576 7.61912 1.45838 8.021 1.45838H11.4181L11.1957 1.53275C10.6052 1.73689 10.2085 2.29324 10.2085 2.91662V13.8541H8.021C7.61912 13.8541 7.29174 13.5267 7.29174 13.125V11.6666C7.29174 11.2642 6.96516 10.9375 6.56262 10.9375C6.16007 10.9375 5.8335 11.2642 5.8335 11.6666V13.125C5.8335 14.331 6.81496 15.3125 8.021 15.3125H10.2085V16.0416C10.2085 16.8459 10.8624 17.5 11.6667 17.5C11.8228 17.5 11.9709 17.4774 12.1312 17.4278L16.5121 15.9673C17.1034 15.7631 17.5001 15.2068 17.5001 14.5834V1.45838C17.5001 0.608158 16.7673 -0.0583458 15.912 0.0109482Z" fill="#006FFD"/>
<path d="M7.80712 6.77593L4.8905 3.85931C4.68195 3.65076 4.36846 3.58801 4.09569 3.7011C3.82372 3.81405 3.64588 4.08028 3.64588 4.37481V6.56231H0.729122C0.32671 6.56231 0 6.88902 0 7.29143C0 7.69398 0.32671 8.02069 0.729122 8.02069H3.64588V10.2082C3.64588 10.5027 3.82372 10.7688 4.09569 10.8819C4.36846 10.9949 4.68195 10.9322 4.8905 10.7237L7.80712 7.80693C8.09231 7.52188 8.09231 7.06112 7.80712 6.77593Z" fill="#006FFD"/>
</svg>
